<svg xmlns="http://www.w3.org/2000/svg" xmlns:xlink="http://www.w3.org/1999/xlink" width="300" height="300" viewBox="0 0 300 300"><defs><clipPath id="b"><rect width="300" height="300"/></clipPath></defs><g id="a" clip-path="url(#b)"><rect width="300" height="300" rx="42" fill="#eaeaea"/><g transform="translate(5.949 0.001)"><path d="M23.777,0H35.665A23.777,23.777,0,0,1,59.442,23.777V35.665A23.777,23.777,0,0,1,35.665,59.442H23.777A23.777,23.777,0,0,1,0,35.665V23.777A23.777,23.777,0,0,1,23.777,0Z" transform="translate(43 126.226)" fill="#707071"/><path d="M-13851.672-5736.654h-154.547a23.794,23.794,0,0,1-23.773-23.773v-23.8a23.8,23.8,0,0,1,23.773-23.777h154.547a23.8,23.8,0,0,1,23.773,23.777v23.8A23.8,23.8,0,0,1-13851.672-5736.654Zm-17.836-30.242c.352,4.164,1.672,7.383,3.914,9.566s5.383,3.41,9.352,3.684v4.563h3.164v-4.562a16.612,16.612,0,0,0,6.578-1.59,14.141,14.141,0,0,0,4.094-3.059,10.214,10.214,0,0,0,2.117-3.492,10.076,10.076,0,0,0,.586-2.973,29.159,29.159,0,0,0-.187-3.059,8.828,8.828,0,0,0-1.187-3.434,12.332,12.332,0,0,0-3.164-3.285,18.975,18.975,0,0,0-6.117-2.633c-.539-.164-.977-.281-1.422-.379s-.875-.207-1.3-.336v-9.461a3.9,3.9,0,0,1,3.094,1.508,5.585,5.585,0,0,1,1.344,3.621h7.6a12.733,12.733,0,0,0-1.172-4.812,11.019,11.019,0,0,0-2.617-3.391,12.82,12.82,0,0,0-3.727-2.137,19.677,19.677,0,0,0-4.523-1.047v-4.121h-3.164v4.121a17.344,17.344,0,0,0-4.641.941,11.8,11.8,0,0,0-3.961,2.2,10.463,10.463,0,0,0-2.758,3.5,10.675,10.675,0,0,0-1.047,4.813,9.929,9.929,0,0,0,.922,4.48,9.088,9.088,0,0,0,2.43,2.992,12.985,12.985,0,0,0,3.453,1.926c1.273.48,2.586.9,3.891,1.258.3.051.617.125,1.008.227a3.835,3.835,0,0,1,.7.254v11.176a7.547,7.547,0,0,1-4.117-2.238,6.673,6.673,0,0,1-1.617-4.816Zm16.43,7.055v-10.277a13.09,13.09,0,0,1,4.461,1.906,3.74,3.74,0,0,1,1.32,3.117,4.424,4.424,0,0,1-.547,2.219,5.268,5.268,0,0,1-1.359,1.59,6.34,6.34,0,0,1-1.859.984,11.313,11.313,0,0,1-2.008.461Zm-3.164-18.773v0a9.073,9.073,0,0,1-3.68-1.547,3.46,3.46,0,0,1-1.125-2.742,4.475,4.475,0,0,1,.391-1.945,3.646,3.646,0,0,1,1.117-1.383,4.21,4.21,0,0,1,1.539-.836,5.557,5.557,0,0,1,1.758-.273v8.73Z" transform="translate(14072.992 5851)" fill="#707071"/><path d="M23.777,0H35.665A23.777,23.777,0,0,1,59.442,23.777V35.665A23.777,23.777,0,0,1,35.665,59.442H23.777A23.777,23.777,0,0,1,0,35.665V23.777A23.777,23.777,0,0,1,23.777,0Z" transform="translate(185.661 126.226)" fill="#707071"/><path d="M23.777,0H35.665A23.777,23.777,0,0,1,59.442,23.777V35.665A23.777,23.777,0,0,1,35.665,59.442H23.777A23.777,23.777,0,0,1,0,35.665V23.777A23.777,23.777,0,0,1,23.777,0Z" transform="translate(114.33 126.226)" fill="#707071"/><path d="M23.777,0H35.665A23.777,23.777,0,0,1,59.442,23.777V35.665A23.777,23.777,0,0,1,35.665,59.442H23.777A23.777,23.777,0,0,1,0,35.665V23.777A23.777,23.777,0,0,1,23.777,0Z" transform="translate(43 197.557)" fill="#707071"/><path d="M23.777,0H35.665A23.777,23.777,0,0,1,59.442,23.777V35.665A23.777,23.777,0,0,1,35.665,59.442H23.777A23.777,23.777,0,0,1,0,35.665V23.777A23.777,23.777,0,0,1,23.777,0Z" transform="translate(114.33 197.557)" fill="#707071"/></g></g></svg>