<svg xmlns="http://www.w3.org/2000/svg" xmlns:xlink="http://www.w3.org/1999/xlink" width="915" height="1545" viewBox="0 0 915 1545"><defs><clipPath id="b"><rect width="915" height="1545"/></clipPath></defs><g id="a" clip-path="url(#b)"><g transform="translate(50 50)"><path d="M129.277,141H10.735a10.578,10.578,0,0,1-4.178-.851A10.82,10.82,0,0,1,0,130.192V10.811A10.812,10.812,0,0,1,6.557.847,10.633,10.633,0,0,1,10.735,0H129.277a10.64,10.64,0,0,1,4.178.847,10.824,10.824,0,0,1,6.557,9.963V130.192a10.815,10.815,0,0,1-6.557,9.96A10.584,10.584,0,0,1,129.277,141ZM94.738,97.292h0v20.68h14.469V97.292ZM74.2,85.542h0v32.429H88.672V85.542ZM53.67,91.179h0v26.792H68.138V91.179ZM33.136,105.751h0v12.221H47.6V105.751ZM51.027,69.663h0l7.215,7.266,3.775-3.8L54.8,65.86l7.14-7.19L58.294,55l-7.139,7.19L43.943,54.92l-3.779,3.806,7.215,7.263-7.144,7.193,3.648,3.674,7.143-7.193ZM76.1,67.747h0v5.194h25.537V67.747Zm0-8.84h0v5.2h25.537v-5.2ZM38.321,36.413h0v5.194h10.1V51.885h5.342V41.607H63.857V36.413H53.763V26.136H48.421V36.413Zm37.777,0h0v5.194h25.537V36.413Z" fill="#707071"/></g><g transform="translate(50 250)"><g fill="#707071" stroke="#707070" stroke-width="1"><circle cx="20" cy="20" r="20" stroke="none"/><circle cx="20" cy="20" r="19.5" fill="none"/></g><g transform="translate(9 14)"><path d="M171.832,401.255l6.41,6.819,14.685-12.519" transform="translate(-171.832 -395.555)" fill="none" stroke="#fff" stroke-linecap="round" stroke-linejoin="round" stroke-width="4"/></g></g><g transform="translate(110.266 250)"><g transform="translate(8.407 11.77)"><g transform="translate(7.328 0.23)" fill="none" stroke="#707070" stroke-width="1"><circle cx="8" cy="8" r="8" stroke="none"/><circle cx="8" cy="8" r="7.5" fill="none"/></g><g transform="translate(0.328 17.23)" fill="none" stroke="#707070" stroke-width="1"><ellipse cx="15.5" cy="8.5" rx="15.5" ry="8.5" stroke="none"/><ellipse cx="15.5" cy="8.5" rx="15" ry="8" fill="none"/></g></g><g transform="translate(-0.265)" fill="none" stroke="#707070" stroke-width="2"><circle cx="23.5" cy="23.5" r="23.5" stroke="none"/><circle cx="23.5" cy="23.5" r="22.5" fill="none"/></g></g><g transform="translate(240 50)"><g transform="translate(-85 -58.997)"><path d="M7.91-13.23v-7.49h4.27a11.508,11.508,0,0,1,1.82.14,4.235,4.235,0,0,1,1.54.542A2.955,2.955,0,0,1,16.608-18.9a4,4,0,0,1,.4,1.925,4,4,0,0,1-.4,1.925,2.955,2.955,0,0,1-1.068,1.137A4.235,4.235,0,0,1,14-13.37a11.508,11.508,0,0,1-1.82.14ZM2.415-24.99V0H7.91V-8.96h5.775a10.409,10.409,0,0,0,3.99-.682,7.465,7.465,0,0,0,2.677-1.8,6.9,6.9,0,0,0,1.505-2.573,9.5,9.5,0,0,0,.472-2.958,9.451,9.451,0,0,0-.472-2.975,6.924,6.924,0,0,0-1.505-2.555,7.465,7.465,0,0,0-2.677-1.8,10.409,10.409,0,0,0-3.99-.682ZM25.2-11.69v4.27H35.735v-4.27ZM63.805,0l6.72-24.99h-5.39L61.04-7.77h-.07L56.7-24.99H51.555L47.215-7.98h-.07L43.19-24.99H37.695L44.31,0h5.565L54.04-17.01h.07L58.345,0ZM77.63-20.9V-24.99H72.66V-20.9Zm-4.97,2.8V0h4.97V-18.1Zm8.89,0V0h4.97V-9.485a6.713,6.713,0,0,1,.91-3.972,3.443,3.443,0,0,1,2.94-1.208,2.711,2.711,0,0,1,2.485,1.1,6.341,6.341,0,0,1,.7,3.342V0h4.97V-11.13a14.584,14.584,0,0,0-.3-3.063A5.824,5.824,0,0,0,97.2-16.538a4.852,4.852,0,0,0-2.013-1.5,8.441,8.441,0,0,0-3.272-.543,7.085,7.085,0,0,0-3.08.718,5.7,5.7,0,0,0-2.45,2.293h-.105V-18.1Z" transform="translate(139 86)" fill="#707070"/><path d="M8.7-7.485h1.425a3.985,3.985,0,0,0-.51-1.508A3.709,3.709,0,0,0,8.64-10.08,4.274,4.274,0,0,0,7.3-10.74a5.505,5.505,0,0,0-1.59-.225,5.125,5.125,0,0,0-2.183.443,4.51,4.51,0,0,0-1.59,1.208A5.3,5.3,0,0,0,.975-7.523a7.145,7.145,0,0,0-.33,2.2,7.552,7.552,0,0,0,.308,2.19,5.058,5.058,0,0,0,.922,1.77A4.272,4.272,0,0,0,3.42-.187,5.163,5.163,0,0,0,5.595.24,4.514,4.514,0,0,0,8.835-.885a4.865,4.865,0,0,0,1.395-3.15H8.805a4.087,4.087,0,0,1-.27,1.23,2.969,2.969,0,0,1-.623.983,2.835,2.835,0,0,1-.945.645,3.179,3.179,0,0,1-1.253.233,3.525,3.525,0,0,1-1.65-.36,3.222,3.222,0,0,1-1.132-.968A4.144,4.144,0,0,1,2.28-3.7,6.94,6.94,0,0,1,2.07-5.43a6.2,6.2,0,0,1,.21-1.62,4.176,4.176,0,0,1,.653-1.387A3.242,3.242,0,0,1,4.057-9.4,3.479,3.479,0,0,1,5.7-9.765a3.31,3.31,0,0,1,1.943.57A2.649,2.649,0,0,1,8.7-7.485Zm5.145,3.06,1.815-5h.03l1.785,5ZM14.91-10.71,10.74,0h1.455l1.2-3.225h4.53L19.1,0H20.67L16.485-10.71Zm6.81,0V0h7.095V-1.2h-5.67v-9.51ZM37.59-7.485h1.425a3.985,3.985,0,0,0-.51-1.508,3.709,3.709,0,0,0-.975-1.087,4.274,4.274,0,0,0-1.335-.66,5.505,5.505,0,0,0-1.59-.225,5.125,5.125,0,0,0-2.182.443,4.51,4.51,0,0,0-1.59,1.208,5.3,5.3,0,0,0-.967,1.792,7.145,7.145,0,0,0-.33,2.2,7.552,7.552,0,0,0,.307,2.19,5.058,5.058,0,0,0,.923,1.77A4.272,4.272,0,0,0,32.31-.187,5.163,5.163,0,0,0,34.485.24a4.514,4.514,0,0,0,3.24-1.125,4.865,4.865,0,0,0,1.4-3.15H37.695a4.087,4.087,0,0,1-.27,1.23,2.969,2.969,0,0,1-.623.983,2.835,2.835,0,0,1-.945.645A3.179,3.179,0,0,1,34.6-.945a3.525,3.525,0,0,1-1.65-.36,3.222,3.222,0,0,1-1.132-.968A4.144,4.144,0,0,1,31.17-3.7a6.94,6.94,0,0,1-.21-1.732,6.2,6.2,0,0,1,.21-1.62,4.176,4.176,0,0,1,.653-1.387A3.242,3.242,0,0,1,32.947-9.4a3.479,3.479,0,0,1,1.643-.36,3.31,3.31,0,0,1,1.943.57A2.649,2.649,0,0,1,37.59-7.485ZM49.44-3.87v-6.84H48.015v6.84A3.035,3.035,0,0,1,47.3-1.687a2.747,2.747,0,0,1-2.077.743,3.039,3.039,0,0,1-2.205-.743,2.906,2.906,0,0,1-.765-2.182v-6.84H40.83v6.84A3.875,3.875,0,0,0,41.993-.743,4.858,4.858,0,0,0,45.225.24a4.388,4.388,0,0,0,3.12-1.027A4.031,4.031,0,0,0,49.44-3.87Zm2.28-6.84V0h7.095V-1.2h-5.67v-9.51ZM61.9-4.425l1.815-5h.03l1.785,5ZM62.97-10.71,58.8,0h1.455l1.2-3.225h4.53L67.155,0H68.73L64.545-10.71Zm7.86,1.2V0h1.425V-9.51h3.57v-1.2H67.26v1.2Zm7,4.155a6.174,6.174,0,0,1,.21-1.6A4.338,4.338,0,0,1,78.7-8.37,3.374,3.374,0,0,1,79.86-9.383a3.474,3.474,0,0,1,1.68-.382,3.474,3.474,0,0,1,1.68.382A3.374,3.374,0,0,1,84.375-8.37a4.338,4.338,0,0,1,.66,1.418,6.174,6.174,0,0,1,.21,1.6,6.174,6.174,0,0,1-.21,1.6,4.338,4.338,0,0,1-.66,1.417A3.374,3.374,0,0,1,83.22-1.327a3.474,3.474,0,0,1-1.68.382,3.474,3.474,0,0,1-1.68-.382A3.374,3.374,0,0,1,78.7-2.34a4.338,4.338,0,0,1-.66-1.417A6.174,6.174,0,0,1,77.835-5.355Zm-1.425,0a6.9,6.9,0,0,0,.323,2.108A5.311,5.311,0,0,0,77.7-1.455,4.642,4.642,0,0,0,79.3-.218,5.141,5.141,0,0,0,81.54.24a5.141,5.141,0,0,0,2.235-.458A4.642,4.642,0,0,0,85.38-1.455a5.311,5.311,0,0,0,.967-1.792,6.9,6.9,0,0,0,.323-2.108,6.9,6.9,0,0,0-.323-2.108,5.311,5.311,0,0,0-.967-1.793A4.722,4.722,0,0,0,83.775-10.5a5.071,5.071,0,0,0-2.235-.465A5.071,5.071,0,0,0,79.3-10.5a4.722,4.722,0,0,0-1.6,1.245,5.311,5.311,0,0,0-.967,1.793A6.9,6.9,0,0,0,76.41-5.355Zm12-5.355V0h1.425V-4.575h3.48a1.892,1.892,0,0,1,.84.158,1.406,1.406,0,0,1,.51.42,1.741,1.741,0,0,1,.285.615q.09.352.15.743a5.229,5.229,0,0,1,.09.795q.015.4.03.758a4.623,4.623,0,0,0,.067.637.894.894,0,0,0,.2.45h1.59a1.831,1.831,0,0,1-.338-.623,4.878,4.878,0,0,1-.173-.743,6.905,6.905,0,0,1-.075-.795q-.015-.405-.045-.8a6.894,6.894,0,0,0-.128-.75,2.276,2.276,0,0,0-.255-.652,1.644,1.644,0,0,0-.465-.5,1.908,1.908,0,0,0-.757-.3v-.03a2.278,2.278,0,0,0,1.417-1.005,3.251,3.251,0,0,0,.443-1.71,2.581,2.581,0,0,0-.863-2.055,3.527,3.527,0,0,0-2.393-.75Zm4.4,4.935h-2.97V-9.51h3.54A1.849,1.849,0,0,1,94.83-9a1.921,1.921,0,0,1,.45,1.32,1.965,1.965,0,0,1-.2.953,1.6,1.6,0,0,1-.54.585,2.062,2.062,0,0,1-.787.293A5.744,5.744,0,0,1,92.805-5.775Z" transform="translate(140 104)" fill="#707070"/></g><path d="M43.407,47H3.6A3.6,3.6,0,0,1,0,43.4V3.6A3.6,3.6,0,0,1,3.6,0h39.8a3.6,3.6,0,0,1,3.6,3.6V43.4a3.6,3.6,0,0,1-3.6,3.6ZM31.81,32.432h0v6.894h4.858V32.432Zm-6.895-3.917h0v10.81h4.858V28.515Zm-6.895,1.879h0v8.931h4.858V30.394Zm-6.895,4.857h0v4.074h4.858V35.252Zm6.007-12.03h0l2.423,2.422,1.268-1.267L18.4,21.954l2.4-2.4-1.225-1.224-2.4,2.4-2.422-2.422-1.269,1.269L15.909,22l-2.4,2.4,1.225,1.225,2.4-2.4Zm8.418-.638h0v1.732h8.574V22.583Zm0-2.947h0v1.733h8.574V19.637Zm-12.684-7.5h0V13.87h3.391V17.3h1.793V13.87h3.389V12.138H18.052V8.712H16.259v3.426Zm12.684,0h0V13.87h8.574V12.138Z" fill="#707071"/></g></g></svg>